Johnny English goes up against international assassins hunting down the Chinese premier. v


Johnny English Reborn (2011) DVDRip XviD-MAX
Format/Info                      : Audio Video Interleave
Format profile                   : OpenDML
File size                        : 1.45 GiB
Duration                         : 1h 37mn
Overall bit rate                 : 2 134 Kbps
Writing application              : VirtualDubMod 1.5.10.2 (build 2542/release)
Writing library                  : VirtualDubMod build 2542/release
Original source form             : MAX TORRENTZ
Copyright                        : SIGISMUNT

Video
ID                               : 0
Format                           : MPEG-4 Visual
Format profile                   : AdvancedSimple@L5
Format settings, BVOP            : Yes
Format settings, QPel            : No
Format settings, GMC             : No warppoints
Format settings, Matrix          : Custom
Codec ID                         : DIVX
Codec ID/Info                    : Project Mayo
Codec ID/Hint                    : DivX 4
Duration                         : 1h 37mn
Bit rate                         : 1 745 Kbps
Width                            : 720 pixels
Height                           : 304 pixels
Display aspect ratio             : 2.35:1
Frame rate                       : 25.000 fps
Resolution                       : 24 bits
Colorimetry                      : 4:2:0
Scan type                        : Progressive
Bits/(Pixel*Frame)               : 0.319
Stream size                      : 1.19 GiB (82%)
Writing library                  : XviD 1.2.1 (UTC 2008-12-04)

Audio
ID                               : 1
Format                           : AC-3
Format/Info                      : Audio Coding 3
Codec ID                         : 2000
Duration                         : 1h 37mn
Bit rate mode                    : Constant
Bit rate                         : 384 Kbps
Channel(s)                       : 6 channels
Channel positions                : Front: L C R, Surround: L R, LFE
Sampling rate                    : 44.1 KHz
Stream size                      : 267 MiB (18%)
Alignment                        : Aligned on interleaves
Interleave, duration             : 70 ms (1.74 video frames)
Interleave, preload duration     : 208 ms
  
http://www.imdb.com/title/tt1634122/